<?xml version="1.0" encoding="UTF-8" standalone="no"?>
<!DOCTYPE svg PUBLIC "-//W3C//DTD SVG 1.1//EN" "http://www.w3.org/Graphics/SVG/1.1/DTD/svg11.dtd">
<svg width="100%" height="100%" viewBox="0 0 1024 1024" version="1.1" xmlns="http://www.w3.org/2000/svg" xmlns:xlink="http://www.w3.org/1999/xlink" xml:space="preserve" xmlns:serif="http://www.serif.com/" style="fill-rule:evenodd;clip-rule:evenodd;stroke-linecap:round;stroke-linejoin:round;stroke-miterlimit:1.5;">
    <g transform="matrix(1,0,0,1,-1416,-2620)">
        <g id="Artboard6" transform="matrix(1,0,0,1,1416,2620)">
            <rect x="0" y="0" width="1024" height="1024" style="fill:none;"/>
            <g transform="matrix(0.940491,0,0,0.949461,30.665,36.4247)">
                <g id="_1---Layer" serif:id="1 – Layer">
                    <g>
                        <g transform="matrix(1,0,0,1,-1432,-1352)">
                            <path d="M2197.82,2173.07C2128.74,2229.88 2040.33,2264 1944,2264C1723.23,2264 1544,2084.77 1544,1864C1544,1654.01 1706.17,1481.59 1912,1465.26L1912,1442.63L1872,1442.63L1872,1400.91C1872,1382.2 1887.34,1367 1906.24,1367L1981.64,1367C2000.6,1367 2016,1382.25 2016,1401.04L2016,1442.63L1976,1442.63L1976,1465.26C2024.38,1469.1 2070.35,1481.56 2112.37,1501.11L2124.71,1479.73L2097,1463.73L2115.76,1431.25C2124.17,1416.67 2142.89,1411.7 2157.53,1420.16L2215.23,1453.47C2229.92,1461.95 2235,1480.71 2226.55,1495.34L2207.85,1527.73L2180.14,1511.73L2168.05,1532.67C2274.19,1604.62 2344,1726.22 2344,1864C2344,1957.2 2312.05,2043.01 2258.52,2111.04" style="fill:none;stroke:black;stroke-width:16.93px;"/>
                        </g>
                    </g>
                </g>
            </g>
            <g id="_2---Layer" serif:id="2 – Layer" transform="matrix(1.04499,0,0,1.04499,-22.8383,-58.0121)">
                <g transform="matrix(0.536164,0.541278,-0.536164,0.541278,469.107,-1505.62)">
                    <path d="M1899.32,1819.32L1661.16,1581.16C1736.17,1506.14 1837.91,1464 1944,1464C2146.49,1464 2313.83,1614.45 2340.34,1809.67" style="fill:none;stroke:black;stroke-width:20px;"/>
                </g>
                <g transform="matrix(0.536164,0.541278,-0.536164,0.541278,469.107,-1505.62)">
                    <path d="M1993.62,1864L1965.07,1864" style="fill:none;stroke:black;stroke-width:20px;"/>
                </g>
            </g>
            <g id="Fat-Pencil" serif:id="Fat Pencil" transform="matrix(0.707107,-0.707107,0.707107,0.707107,-422.005,810.048)">
                <g id="_3---Layer" serif:id="3 – Layer">
                    <g id="Fat-Pencil1" serif:id="Fat Pencil">
                        <g transform="matrix(1,0,0,1.01691,0,-20.7243)">
                            <path d="M912,504.2L912,928.713L872,1000C866.667,1005.04 861.333,1004.9 856,1000L820,928.713L820,504.2L912,504.2ZM864.325,981.11L896,924.66L896,519.934L836,519.933L836,925.021L864.325,981.11Z"/>
                        </g>
                        <g transform="matrix(1,0,0,1.38087,0,-160.724)">
                            <path d="M912,435.119L912,464L820,464L820,435.119C820,422.077 834.621,411.489 852.63,411.489L879.37,411.489C897.379,411.489 912,422.077 912,435.119ZM896,435.119C896,428.472 888.548,423.076 879.37,423.076L852.63,423.076C843.452,423.076 836,428.472 836,435.119L836,452.413L896,452.413L896,435.119Z"/>
                        </g>
                    </g>
                </g>
            </g>
            <g id="_4---Layer" serif:id="4 – Layer">
            </g>
        </g>
    </g>
</svg>
